<svg width="53" height="34" viewBox="0 0 53 34" fill="none" xmlns="http://www.w3.org/2000/svg">
<path d="M52.3964 15.7789C51.9253 15.1345 40.701 0 26.3655 0C12.03 0 0.805187 15.1345 0.334619 15.7783C-0.11154 16.3897 -0.11154 17.2188 0.334619 17.8302C0.805187 18.4746 12.03 33.6091 26.3655 33.6091C40.701 33.6091 51.9253 18.4745 52.3964 17.8307C52.8432 17.2195 52.8432 16.3897 52.3964 15.7789ZM26.3655 30.1323C15.8059 30.1323 6.66015 20.0873 3.95281 16.8034C6.65665 13.5166 15.7832 3.47679 26.3655 3.47679C36.9246 3.47679 46.0697 13.5201 48.7782 16.8057C46.0744 20.0924 36.9478 30.1323 26.3655 30.1323Z" fill="#FF7F00"/>
<path d="M26.3636 6.37427C20.6123 6.37427 15.9331 11.0535 15.9331 16.8047C15.9331 22.556 20.6123 27.2352 26.3636 27.2352C32.1148 27.2352 36.794 22.556 36.794 16.8047C36.794 11.0535 32.1148 6.37427 26.3636 6.37427ZM26.3636 23.7583C22.5292 23.7583 19.41 20.639 19.41 16.8047C19.41 12.9705 22.5293 9.85116 26.3636 9.85116C30.1978 9.85116 33.3171 12.9705 33.3171 16.8047C33.3171 20.639 30.1979 23.7583 26.3636 23.7583Z" fill="#FF7F00"/>
</svg>
