<svg width="45" height="45" viewBox="0 0 45 45" fill="none" xmlns="http://www.w3.org/2000/svg">
<g opacity="0.25" clip-path="url(#clip0_501_40)">
<path d="M10.3679 23.174H8.50212C7.31184 23.174 6.34342 22.2117 6.34342 21.029C6.34342 20.6697 6.05227 20.3785 5.69295 20.3785C5.33363 20.3785 5.04248 20.6697 5.04248 21.029C5.04248 22.9291 6.5945 24.4749 8.5022 24.4749H10.3679C10.7272 24.4749 11.0184 24.1838 11.0184 23.8245C11.0184 23.4652 10.7272 23.174 10.3679 23.174Z" fill="black" fill-opacity="0.55"/>
<path d="M16.4798 27.9883H10.9228C9.08746 27.9883 7.59424 29.4754 7.59424 31.3036C7.59424 31.6629 7.88539 31.9541 8.24471 31.9541C8.60403 31.9541 8.89518 31.6628 8.89518 31.3036C8.89518 30.1929 9.80471 29.2892 10.9228 29.2892H16.4798C16.8391 29.2892 17.1302 28.9981 17.1302 28.6388C17.1302 28.2794 16.8391 27.9883 16.4798 27.9883Z" fill="black" fill-opacity="0.55"/>
<path d="M21.7801 27.9883H19.0825C18.7232 27.9883 18.4321 28.2794 18.4321 28.6386C18.4321 28.9979 18.7232 29.289 19.0825 29.289H21.7801C22.1394 29.289 22.4305 28.9979 22.4305 28.6386C22.4305 28.2794 22.1393 27.9883 21.7801 27.9883Z" fill="black" fill-opacity="0.55"/>
<path d="M17.2062 15.3491C16.8469 15.3491 16.5557 15.6404 16.5557 15.9996C16.5557 17.8596 15.0336 19.3728 13.1627 19.3728C12.8034 19.3728 12.5122 19.6639 12.5122 20.0232C12.5122 20.3825 12.8034 20.6737 13.1627 20.6737C15.7509 20.6737 17.8566 18.5769 17.8566 15.9996C17.8566 15.6404 17.5655 15.3491 17.2062 15.3491Z" fill="black" fill-opacity="0.55"/>
<path d="M16.0072 5.51566C14.4536 5.41594 13.1066 6.59379 13.0058 8.14217C12.9825 8.50066 13.2541 8.81006 13.6125 8.83347C13.6269 8.83442 13.6412 8.83486 13.6555 8.83486C13.9954 8.83486 14.2814 8.57072 14.3038 8.22672C14.3579 7.39356 15.0846 6.7608 15.9236 6.8137C16.2823 6.83772 16.5913 6.565 16.6144 6.20652C16.6375 5.84804 16.3657 5.53881 16.0072 5.51566Z" fill="black" fill-opacity="0.55"/>
<path d="M13.8194 30.8848C13.4601 30.8848 13.1689 31.1759 13.1689 31.5352C13.1689 31.8946 13.4601 32.1857 13.8194 32.1857C14.8936 32.1857 15.7674 33.0538 15.7674 34.1207C15.7674 35.1879 14.8936 36.056 13.8194 36.056C13.4601 36.056 13.1689 36.3472 13.1689 36.7065C13.1689 37.0658 13.4601 37.3569 13.8194 37.3569C15.6109 37.3569 17.0684 35.9053 17.0684 34.1207C17.0684 32.3364 15.6109 30.8848 13.8194 30.8848Z" fill="black" fill-opacity="0.55"/>
<path d="M20.4766 15.5673C20.1173 15.5673 19.8262 15.8584 19.8262 16.2177C19.8262 16.5771 20.1173 16.8682 20.4766 16.8682C21.3395 16.8682 22.0416 17.5652 22.0416 18.4221C22.0416 19.2791 21.3395 19.9762 20.4766 19.9762C20.1173 19.9762 19.8262 20.2674 19.8262 20.6267C19.8262 20.986 20.1173 21.2772 20.4766 21.2772C22.0569 21.2772 23.3425 19.9964 23.3425 18.4221C23.3425 16.848 22.0569 15.5673 20.4766 15.5673Z" fill="black" fill-opacity="0.55"/>
<path d="M9.01815 11.4316C8.65883 11.4316 8.36768 11.7228 8.36768 12.0821C8.36768 12.4414 8.65883 12.7326 9.01815 12.7326C10.5007 12.7326 11.7068 13.9312 11.7068 15.4045C11.7068 16.878 10.5007 18.0767 9.01815 18.0767C8.65883 18.0767 8.36768 18.3678 8.36768 18.7271C8.36768 19.0865 8.65883 19.3776 9.01815 19.3776C11.218 19.3776 13.0077 17.5953 13.0077 15.4045C13.0077 13.2138 11.218 11.4316 9.01815 11.4316Z" fill="black" fill-opacity="0.55"/>
<path d="M39.5977 11.4021C38.3751 11.4021 37.3804 12.3933 37.3804 13.6117C37.3804 14.8302 38.3751 15.8214 39.5977 15.8214C40.8203 15.8214 41.815 14.8302 41.815 13.6117C41.815 12.3933 40.8203 11.4021 39.5977 11.4021ZM39.5978 14.5205C39.0925 14.5205 38.6814 14.1129 38.6814 13.6118C38.6813 13.1108 39.0924 12.7031 39.5978 12.7031C40.1031 12.7031 40.5142 13.1108 40.5142 13.6118C40.5142 14.1128 40.1031 14.5205 39.5978 14.5205Z" fill="black" fill-opacity="0.55"/>
<path d="M41.7715 28.0498C40.5488 28.0498 39.5542 29.041 39.5542 30.2595C39.5542 31.478 40.5489 32.4691 41.7715 32.4691C42.9941 32.4691 43.9888 31.4779 43.9888 30.2595C43.9888 29.0411 42.9941 28.0498 41.7715 28.0498ZM41.7715 31.1682C41.2662 31.1682 40.8551 30.7605 40.8551 30.2595C40.8551 29.7585 41.2662 29.3507 41.7715 29.3507C42.2768 29.3507 42.6878 29.7584 42.6878 30.2595C42.6879 30.7605 42.2768 31.1682 41.7715 31.1682Z" fill="black" fill-opacity="0.55"/>
<path d="M40.4058 20.2542C40.0306 20.2543 39.6771 20.3479 39.367 20.5126L38.099 19.2509C37.8442 18.9975 37.4325 18.9986 37.1791 19.2531C36.9257 19.5078 36.9268 19.9196 37.1814 20.173L38.4462 21.4315C38.282 21.7399 38.1885 22.0911 38.1885 22.4638C38.1885 23.6822 39.1832 24.6735 40.4058 24.6735C41.6285 24.6735 42.6231 23.6822 42.6231 22.4638C42.6231 21.2454 41.6284 20.2542 40.4058 20.2542ZM40.4059 23.3726C39.9006 23.3726 39.4895 22.965 39.4895 22.4639C39.4895 21.9629 39.9006 21.5552 40.4059 21.5552C40.9112 21.5552 41.3223 21.9628 41.3223 22.4639C41.3223 22.9649 40.9112 23.3726 40.4059 23.3726Z" fill="black" fill-opacity="0.55"/>
<path d="M38.94 34.8396C37.7173 34.8396 36.7227 35.8308 36.7227 37.0493C36.7227 38.2678 37.7174 39.259 38.94 39.259C40.1627 39.259 41.1573 38.2678 41.1573 37.0493C41.1573 35.8308 40.1627 34.8396 38.94 34.8396ZM38.94 37.958C38.4347 37.958 38.0236 37.5503 38.0236 37.0492C38.0236 36.5482 38.4347 36.1405 38.94 36.1405C39.4453 36.1405 39.8564 36.5481 39.8564 37.0492C39.8564 37.5503 39.4454 37.958 38.94 37.958Z" fill="black" fill-opacity="0.55"/>
<path d="M31.3294 12.2241C31.7428 12.2241 32.2362 12.0204 32.5292 11.7289L35.0421 9.22827C35.2947 9.3281 35.5694 9.3836 35.8571 9.3836C37.0798 9.3836 38.0744 8.39237 38.0744 7.17391C38.0744 5.95554 37.0797 4.96439 35.8571 4.96439C34.6345 4.96439 33.6399 5.95562 33.6399 7.17391C33.6399 7.63141 33.7801 8.05699 34.0202 8.40998L31.6118 10.8065C31.5609 10.8553 31.3997 10.9219 31.3294 10.9231H25.9603V6.61728H27.4706C27.7499 7.51918 28.5941 8.1765 29.5897 8.1765C30.8124 8.1765 31.807 7.18527 31.807 5.96681C31.807 4.74844 30.8123 3.75721 29.5897 3.75721C28.5941 3.75721 27.7499 4.41444 27.4706 5.31634H25.9603V5.21781C25.9603 2.34065 23.6095 0 20.7199 0C18.6542 0 16.8011 1.20398 15.9555 3.0449C15.8255 3.0357 15.6958 3.03102 15.5672 3.03102C12.5639 3.03102 10.1125 5.42874 10.0429 8.40269C9.78356 8.36575 9.52129 8.3471 9.2579 8.3471C6.21092 8.3471 3.73211 10.8152 3.73211 13.849C3.73211 14.5149 3.84893 15.1592 4.07998 15.7721C1.80558 17.1216 0.41748 19.5323 0.41748 22.2027C0.41748 23.6365 0.825889 25.0303 1.59847 26.2331C2.2349 27.2239 3.0923 28.0486 4.10079 28.6455C3.85847 29.2735 3.73211 29.946 3.73211 30.6213C3.73211 31.9606 4.22109 33.2512 5.10893 34.2554C5.34683 34.5246 5.75793 34.5499 6.02714 34.3119C6.29635 34.0739 6.32158 33.6629 6.0836 33.3937C5.40607 32.6274 5.03305 31.6428 5.03305 30.6212C5.03305 29.934 5.19549 29.2785 5.51535 28.6727C5.89713 27.9476 6.49027 27.3353 7.24057 26.929C7.55653 26.7579 7.67387 26.3632 7.50275 26.0474C7.33172 25.7313 6.93684 25.6138 6.62106 25.7852C5.84405 26.2061 5.19627 26.7963 4.71189 27.495C2.85189 26.3761 1.71842 24.3977 1.71842 22.2027C1.71842 19.8558 3.01832 17.752 5.117 16.6871C5.117 16.6871 6.33139 16.0115 7.94351 16.0115C8.30283 16.0115 8.59398 15.7203 8.59398 15.361C8.59398 15.0017 8.30283 14.7105 7.94351 14.7105C6.99851 14.7105 6.09392 14.8853 5.25993 15.2033C5.11041 14.7697 5.03322 14.3165 5.03322 13.849C5.03322 11.5326 6.92843 9.64813 9.25807 9.64813C9.69597 9.64813 10.1292 9.71517 10.5457 9.84743C10.7591 9.91517 10.9923 9.86842 11.1631 9.72358C11.3339 9.57874 11.4182 9.35637 11.3862 9.13469C11.3572 8.93278 11.3424 8.73036 11.3424 8.53296C11.3424 6.21659 13.2377 4.33205 15.5674 4.33205C15.7962 4.33205 16.03 4.35165 16.2627 4.3899C18.2625 4.72068 19.7922 6.45206 19.7922 8.53296C19.7922 8.89228 20.0834 9.18343 20.4427 9.18343C20.802 9.18343 21.0932 8.89228 21.0932 8.53296C21.0932 6.09569 19.4926 4.02485 17.2832 3.30448C17.97 2.08315 19.2753 1.30094 20.7199 1.30094C22.8921 1.30094 24.6594 3.05808 24.6594 5.21781V5.29006H23.4083C23.049 5.29006 22.7579 5.58121 22.7579 5.94053C22.7579 6.29985 23.049 6.591 23.4083 6.591H24.6594V10.923H19.3984C18.208 10.923 17.2396 9.96087 17.2396 8.77823C17.2396 8.41891 16.9485 8.12776 16.5891 8.12776C16.2298 8.12776 15.9387 8.41891 15.9387 8.77823C15.9387 10.6782 17.4907 12.224 19.3984 12.224H24.6594V23.1741H14.1081C13.7487 23.1741 13.4576 23.4653 13.4576 23.8246C13.4576 24.1839 13.7487 24.475 14.1081 24.475H24.6594V33.4061H22.6494C20.814 33.4061 19.3209 34.8932 19.3209 36.7213C19.3209 37.0806 19.612 37.3718 19.9713 37.3718C20.3306 37.3718 20.6218 37.0806 20.6218 36.7213C20.6218 35.6107 21.5313 34.707 22.6494 34.707H24.6594V39.1876C24.6594 39.2898 24.6542 39.3908 24.6465 39.4909H23.4083C23.049 39.4909 22.7579 39.7821 22.7579 40.1414C22.7579 40.5007 23.049 40.7919 23.4083 40.7919H24.3124C23.6948 42.1537 22.3174 43.1045 20.7199 43.1045C19.285 43.1045 17.9845 42.3304 17.2942 41.1208C18.0799 40.8641 18.803 40.4327 19.4122 39.8451C19.6707 39.5956 19.6781 39.1838 19.4287 38.9254C19.1792 38.6667 18.7674 38.6594 18.509 38.9088C17.8878 39.5081 17.1113 39.895 16.2728 40.0348C16.0364 40.0744 15.799 40.0945 15.5672 40.0945C13.2376 40.0945 11.3423 38.2099 11.3423 35.8935C11.3423 35.8343 11.3458 35.7728 11.3487 35.7119C11.8737 35.4982 12.367 35.2057 12.8069 34.8385C13.0827 34.6083 13.1195 34.1981 12.8893 33.9223C12.659 33.6465 12.2555 33.618 11.973 33.8399C10.6678 34.8652 9.40534 34.8493 8.90031 34.8074C8.54125 34.7769 8.22798 35.0438 8.19815 35.4017C8.1684 35.7598 8.43457 36.0741 8.79259 36.1039C9.20846 36.1382 9.63213 36.1262 10.0441 36.0675C10.1366 39.0211 12.5787 41.3954 15.5673 41.3954C15.6989 41.3954 15.8317 41.3905 15.9649 41.3808C16.8151 43.2095 18.6644 44.4055 20.7199 44.4055C23.6094 44.4055 25.9603 42.0648 25.9603 39.1876V37.7502H29.4085C29.4791 37.7514 29.6403 37.8179 29.691 37.8667L31.2418 39.4098C31.032 39.7473 30.9105 40.1448 30.9105 40.5701C30.9105 41.7886 31.9052 42.7798 33.1278 42.7798C34.3505 42.7798 35.3451 41.7886 35.3451 40.5701C35.3451 39.3517 34.3505 38.3604 33.1278 38.3604C32.8063 38.3604 32.5009 38.4295 32.2248 38.5527L30.6086 36.9445C30.3155 36.6529 29.8222 36.4493 29.4088 36.4493H25.9603V32.9721H31.6151C31.8944 33.874 32.7387 34.5313 33.7343 34.5313C34.957 34.5313 35.9516 33.5401 35.9516 32.3216C35.9516 31.1032 34.957 30.1119 33.7343 30.1119C32.7388 30.1119 31.8944 30.7692 31.6151 31.6712H25.9603V27.3139H32.7271C33.0065 28.2158 33.8507 28.8731 34.8464 28.8731C36.0691 28.8731 37.0637 27.8819 37.0637 26.6634C37.0637 25.4449 36.069 24.4537 34.8464 24.4537C33.8507 24.4537 33.0065 25.1109 32.7271 26.0129H25.9603V21.2785H27.5716C27.851 22.1803 28.6953 22.8376 29.6908 22.8376C30.9135 22.8376 31.9082 21.8464 31.9082 20.628C31.9082 19.4095 30.9135 18.4183 29.6908 18.4183C28.6953 18.4183 27.851 19.0755 27.5716 19.9775H25.9603V16.2238H33.0477C33.1182 16.2251 33.2794 16.2915 33.3302 16.3403L34.6663 17.67C34.7932 17.7963 34.9591 17.8594 35.1251 17.8594C35.2921 17.8594 35.4591 17.7955 35.5862 17.6677C35.8396 17.4131 35.8386 17.0012 35.5839 16.7478L34.2478 15.4181C33.9547 15.1265 33.4614 14.9228 33.0479 14.9228H25.9603V12.2241H31.3294ZM35.8571 6.26525C36.3624 6.26525 36.7735 6.67287 36.7735 7.17382C36.7735 7.67486 36.3624 8.08257 35.8571 8.08257C35.3518 8.08257 34.9408 7.67495 34.9408 7.17382C34.9408 6.67287 35.3518 6.26525 35.8571 6.26525ZM29.5897 5.05815C30.095 5.05815 30.5061 5.46577 30.5061 5.96681C30.5061 6.46785 30.095 6.87556 29.5897 6.87556C29.0844 6.87556 28.6734 6.46793 28.6734 5.96681C28.6733 5.46577 29.0844 5.05815 29.5897 5.05815ZM33.1278 39.6613C33.6331 39.6613 34.0442 40.069 34.0442 40.57C34.0442 41.0711 33.6331 41.4788 33.1278 41.4788C32.6225 41.4788 32.2114 41.0711 32.2114 40.57C32.2114 40.069 32.6225 39.6613 33.1278 39.6613ZM33.7343 31.4129C34.2396 31.4129 34.6507 31.8205 34.6507 32.3216C34.6507 32.8227 34.2396 33.2304 33.7343 33.2304C33.229 33.2304 32.8179 32.8227 32.8179 32.3216C32.8179 31.8206 33.229 31.4129 33.7343 31.4129ZM34.8463 25.7546C35.3516 25.7546 35.7627 26.1623 35.7627 26.6634C35.7627 27.1644 35.3516 27.5721 34.8463 27.5721C34.341 27.5721 33.9299 27.1645 33.9299 26.6634C33.9299 26.1623 34.341 25.7546 34.8463 25.7546ZM29.6908 19.7192C30.1961 19.7192 30.6072 20.1269 30.6072 20.628C30.6072 21.1289 30.1961 21.5366 29.6908 21.5366C29.1855 21.5366 28.7744 21.129 28.7744 20.628C28.7744 20.1269 29.1855 19.7192 29.6908 19.7192Z" fill="black" fill-opacity="0.55"/>
</g>
<defs>
<clipPath id="clip0_501_40">
<rect width="44.4055" height="44.4055" fill="white"/>
</clipPath>
</defs>
</svg>
