<svg width="53" height="53" viewBox="0 0 53 53" fill="none" xmlns="http://www.w3.org/2000/svg">
<g clip-path="url(#clip0_377_986)">
<path d="M18.7212 19.4024V14.3849L22.1267 11.3322" stroke="white" stroke-width="1.1985" stroke-miterlimit="10" stroke-linecap="round" stroke-linejoin="round"/>
<path d="M23.7397 11.6419C24.7827 11.6419 25.6283 10.7964 25.6283 9.75334C25.6283 8.7103 24.7827 7.86475 23.7397 7.86475C22.6966 7.86475 21.8511 8.7103 21.8511 9.75334C21.8511 10.7964 22.6966 11.6419 23.7397 11.6419Z" stroke="white" stroke-width="1.1985" stroke-miterlimit="10" stroke-linecap="round" stroke-linejoin="round"/>
<path d="M18.7214 14.3849L15.3159 11.3322" stroke="white" stroke-width="1.1985" stroke-miterlimit="10" stroke-linecap="round" stroke-linejoin="round"/>
<path d="M13.7016 11.6419C14.7446 11.6419 15.5902 10.7964 15.5902 9.75334C15.5902 8.7103 14.7446 7.86475 13.7016 7.86475C12.6585 7.86475 11.813 8.7103 11.813 9.75334C11.813 10.7964 12.6585 11.6419 13.7016 11.6419Z" stroke="white" stroke-width="1.1985" stroke-miterlimit="10" stroke-linecap="round" stroke-linejoin="round"/>
<path d="M18.7212 26.8525V31.87L22.1267 34.9227" stroke="white" stroke-width="1.1985" stroke-miterlimit="10" stroke-linecap="round" stroke-linejoin="round"/>
<path d="M23.7397 38.3901C24.7827 38.3901 25.6283 37.5445 25.6283 36.5015C25.6283 35.4585 24.7827 34.6129 23.7397 34.6129C22.6966 34.6129 21.8511 35.4585 21.8511 36.5015C21.8511 37.5445 22.6966 38.3901 23.7397 38.3901Z" stroke="white" stroke-width="1.1985" stroke-miterlimit="10" stroke-linecap="round" stroke-linejoin="round"/>
<path d="M18.7214 31.87L15.3159 34.9227" stroke="white" stroke-width="1.1985" stroke-miterlimit="10" stroke-linecap="round" stroke-linejoin="round"/>
<path d="M13.7016 38.3901C14.7446 38.3901 15.5902 37.5445 15.5902 36.5015C15.5902 35.4585 14.7446 34.6129 13.7016 34.6129C12.6585 34.6129 11.813 35.4585 11.813 36.5015C11.813 37.5445 12.6585 38.3901 13.7016 38.3901Z" stroke="white" stroke-width="1.1985" stroke-miterlimit="10" stroke-linecap="round" stroke-linejoin="round"/>
<path d="M14.9956 23.1274H12.3881L9.33545 19.7219" stroke="white" stroke-width="1.1985" stroke-miterlimit="10" stroke-linecap="round" stroke-linejoin="round"/>
<path d="M7.75676 19.9965C8.7998 19.9965 9.64535 19.151 9.64535 18.108C9.64535 17.0649 8.7998 16.2194 7.75676 16.2194C6.71372 16.2194 5.86816 17.0649 5.86816 18.108C5.86816 19.151 6.71372 19.9965 7.75676 19.9965Z" stroke="white" stroke-width="1.1985" stroke-miterlimit="10" stroke-linecap="round" stroke-linejoin="round"/>
<path d="M12.3881 23.1273L9.33545 26.5328" stroke="white" stroke-width="1.1985" stroke-miterlimit="10" stroke-linecap="round" stroke-linejoin="round"/>
<path d="M7.75676 30.0351C8.7998 30.0351 9.64535 29.1896 9.64535 28.1465C9.64535 27.1035 8.7998 26.2579 7.75676 26.2579C6.71372 26.2579 5.86816 27.1035 5.86816 28.1465C5.86816 29.1896 6.71372 30.0351 7.75676 30.0351Z" stroke="white" stroke-width="1.1985" stroke-miterlimit="10" stroke-linecap="round" stroke-linejoin="round"/>
<path d="M22.4458 23.1274H25.0533L28.1059 19.7219" stroke="white" stroke-width="1.1985" stroke-miterlimit="10" stroke-linecap="round" stroke-linejoin="round"/>
<path d="M29.685 19.9965C30.728 19.9965 31.5736 19.151 31.5736 18.108C31.5736 17.0649 30.728 16.2194 29.685 16.2194C28.6419 16.2194 27.7964 17.0649 27.7964 18.108C27.7964 19.151 28.6419 19.9965 29.685 19.9965Z" stroke="white" stroke-width="1.1985" stroke-miterlimit="10" stroke-linecap="round" stroke-linejoin="round"/>
<path d="M25.0537 23.1273L28.1064 26.5328" stroke="white" stroke-width="1.1985" stroke-miterlimit="10" stroke-linecap="round" stroke-linejoin="round"/>
<path d="M29.685 30.0351C30.728 30.0351 31.5736 29.1896 31.5736 28.1465C31.5736 27.1035 30.728 26.2579 29.685 26.2579C28.6419 26.2579 27.7964 27.1035 27.7964 28.1465C27.7964 29.1896 28.6419 30.0351 29.685 30.0351Z" stroke="white" stroke-width="1.1985" stroke-miterlimit="10" stroke-linecap="round" stroke-linejoin="round"/>
<path d="M18.7211 26.7531C20.7237 26.7531 22.3471 25.1297 22.3471 23.1271C22.3471 21.1246 20.7237 19.5012 18.7211 19.5012C16.7186 19.5012 15.0952 21.1246 15.0952 23.1271C15.0952 25.1297 16.7186 26.7531 18.7211 26.7531Z" stroke="white" stroke-width="1.1985" stroke-miterlimit="10" stroke-linecap="round" stroke-linejoin="round"/>
<path d="M18.3223 51.7005C21.383 51.7005 24.0378 51.7005 24.1445 51.7005C24.6811 51.7005 25.116 51.2655 25.116 50.729V49.5119C25.116 47.7419 26.5514 46.3119 28.316 46.3119C32.8417 46.3119 36.5446 42.609 36.5446 38.0833V35.0547C36.5446 34.5498 36.954 34.1403 37.459 34.1403H40.9892C42.4595 34.1403 43.1958 32.3627 42.1561 31.3232L39.7015 28.8684C37.6802 26.8471 36.5446 24.1056 36.5446 21.247V18.597C36.5446 14.4196 35.1089 10.5815 32.7062 7.54492" stroke="white" stroke-width="1.1985" stroke-miterlimit="10" stroke-linecap="round" stroke-linejoin="round"/>
<path d="M30.2096 4.96945C27.1042 2.34831 23.0927 0.768677 18.7157 0.768677C8.86902 0.768677 0.886719 8.75098 0.886719 18.5976V26.3692C0.886719 30.8895 2.56986 35.016 5.34277 38.1582C7.09171 40.14 7.97263 42.7419 7.97263 45.3851V50.7153C7.97263 51.2597 8.41401 51.7011 8.95839 51.7011C9.07337 51.7011 11.6988 51.7011 14.7353 51.7011" stroke="white" stroke-width="1.1985" stroke-miterlimit="10" stroke-linecap="round" stroke-linejoin="round"/>
<path d="M24.1447 51.7008C28.2449 51.7008 32.8869 51.7008 33.0839 51.7008C33.6205 51.7008 34.0555 51.2659 34.0555 50.7293V49.5123C34.0555 47.7422 35.4909 46.3123 37.2554 46.3123C41.7812 46.3123 45.4841 42.6094 45.4841 38.0836V35.055C45.4841 34.5501 45.8935 34.1407 46.3984 34.1407H49.9287C51.399 34.1407 52.1353 32.3631 51.0956 31.3235L48.641 28.8688C46.6197 26.8475 45.4841 24.1059 45.4841 21.2473V18.5974C45.4842 8.73651 37.4862 0.768555 27.6553 0.768555C26.1108 0.768555 24.6123 0.965112 23.1831 1.33435" stroke="white" stroke-width="1.1985" stroke-miterlimit="10" stroke-linecap="round" stroke-linejoin="round"/>
</g>
<defs>
<clipPath id="clip0_377_986">
<rect width="52.4695" height="52.4695" fill="white"/>
</clipPath>
</defs>
</svg>
