<svg width="47" height="47" viewBox="0 0 47 47" fill="none" xmlns="http://www.w3.org/2000/svg">
<mask id="mask0_501_27" style="mask-type:luminance" maskUnits="userSpaceOnUse" x="0" y="0" width="47" height="47">
<path d="M0 0H46.2557V46.2557H0V0Z" fill="white"/>
</mask>
<g mask="url(#mask0_501_27)">
<path d="M27.4822 6.25923C29.0796 6.67146 30.5885 7.30432 31.974 8.12373C31.974 8.12373 32.6415 7.456 33.3913 6.70625C33.9357 6.1613 34.6744 5.85567 35.4445 5.85567C36.2137 5.85567 36.9526 6.1613 37.4969 6.70625C38.1573 7.36675 38.8889 8.09825 39.5493 8.75875C40.0944 9.30307 40.3999 10.0419 40.3999 10.8112C40.3999 11.5813 40.0944 12.32 39.5493 12.8643C38.7996 13.6141 38.1319 14.2817 38.1319 14.2817C38.9513 15.6672 39.5841 17.176 39.9965 18.7735H41.9973C43.6005 18.7735 44.9004 20.0733 44.9004 21.6765V24.5795C44.9004 26.1827 43.6005 27.4825 41.9973 27.4825H39.9965C39.5841 29.0799 38.9513 30.5888 38.1319 31.9742C38.1319 31.9742 38.7996 32.642 39.5493 33.3916C40.0944 33.936 40.3999 34.6748 40.3999 35.4448C40.3999 36.2141 40.0944 36.9529 39.5493 37.4973C38.8889 38.1577 38.1573 38.8893 37.4969 39.5497C36.9526 40.0947 36.2137 40.4003 35.4445 40.4003C34.6744 40.4003 33.9357 40.0947 33.3913 39.5497C32.6415 38.7999 31.974 38.1323 31.974 38.1323C30.5885 38.9516 29.0796 39.5846 27.4822 39.9967V41.9976C27.4822 43.6008 26.1824 44.9007 24.5791 44.9007H21.6761C20.0729 44.9007 18.7731 43.6008 18.7731 41.9976V39.9967C17.1758 39.5846 15.6669 38.9516 14.2814 38.1323C14.2814 38.1323 13.6137 38.7999 12.864 39.5497C12.3197 40.0947 11.5808 40.4003 10.8108 40.4003C10.0416 40.4003 9.30265 40.0947 8.75842 39.5497C8.09801 38.8893 7.36641 38.1577 6.70592 37.4973C6.16097 36.9529 5.85533 36.2141 5.85533 35.4448C5.85533 34.6748 6.16097 33.936 6.70592 33.3916C7.45567 32.642 8.1234 31.9742 8.1234 31.9742C7.30399 30.5888 6.67122 29.0799 6.2589 27.4825H4.25807C2.65484 27.4825 1.35498 26.1827 1.35498 24.5795V21.6765C1.35498 20.0733 2.65484 18.7735 4.25807 18.7735H6.2589C6.67122 17.176 7.30399 15.6672 8.1234 14.2817C8.1234 14.2817 7.45567 13.6141 6.70592 12.8643C6.16097 12.32 5.85533 11.5813 5.85533 10.8112C5.85533 10.0419 6.16097 9.30307 6.70592 8.75875C7.36641 8.09825 8.09801 7.36675 8.75842 6.70625C9.30265 6.1613 10.0416 5.85567 10.8108 5.85567C11.5808 5.85567 12.3197 6.1613 12.864 6.70625C13.6137 7.456 14.2814 8.12373 14.2814 8.12373C15.6669 7.30432 17.1758 6.67146 18.7731 6.25923V4.25831C18.7731 2.65508 20.0729 1.35531 21.6761 1.35531H24.5791C26.1824 1.35531 27.4822 2.65508 27.4822 4.25831V6.25923Z" stroke="black" stroke-opacity="0.55" stroke-width="2.71029" stroke-miterlimit="10" stroke-linecap="round" stroke-linejoin="round"/>
<path d="M23.1275 14.4188C27.9342 14.4188 31.8366 18.3212 31.8366 23.1279C31.8366 27.9345 27.9342 31.837 23.1275 31.837C18.3208 31.837 14.4185 27.9345 14.4185 23.1279C14.4185 18.3212 18.3208 14.4188 23.1275 14.4188Z" stroke="black" stroke-opacity="0.55" stroke-width="2.71029" stroke-miterlimit="10" stroke-linecap="round" stroke-linejoin="round"/>
</g>
</svg>
