<svg width="38" height="38" viewBox="0 0 38 38" fill="none" xmlns="http://www.w3.org/2000/svg">
<mask id="mask0_377_1214" style="mask-type:luminance" maskUnits="userSpaceOnUse" x="0" y="0" width="38" height="38">
<path d="M0 3.8147e-06H38V38H0V3.8147e-06Z" fill="white"/>
</mask>
<g mask="url(#mask0_377_1214)">
<path d="M33.4918 7.89272C35.8539 10.9699 37.2578 14.821 37.2578 19C37.2578 29.0835 29.0835 37.2578 19 37.2578C14.8318 37.2578 10.9898 35.861 7.9165 33.5099" stroke="#FEC801" stroke-width="1.48437" stroke-miterlimit="10" stroke-linecap="round" stroke-linejoin="round"/>
<path d="M8.48389 4.07304C11.4568 1.97473 15.0845 0.74218 19 0.74218C23.1808 0.74218 27.0333 2.14736 30.1111 4.51123" stroke="#FEC801" stroke-width="1.48437" stroke-miterlimit="10" stroke-linecap="round" stroke-linejoin="round"/>
<path d="M4.48378 30.0753C2.13646 27.0035 0.742188 23.1646 0.742188 19C0.742188 15.2351 1.88174 11.7363 3.83473 8.82983" stroke="#FEC801" stroke-width="1.48437" stroke-miterlimit="10" stroke-linecap="round" stroke-linejoin="round"/>
<path d="M24.3944 27.4609C23.3774 33.2844 21.3434 37.2578 19 37.2578C15.6388 37.2578 12.9141 29.0834 12.9141 18.9999C12.9141 17.7289 12.9573 16.4883 13.0397 15.2905" stroke="#FEC801" stroke-width="1.48437" stroke-miterlimit="10" stroke-linecap="round" stroke-linejoin="round"/>
<path d="M13.5996 10.5712C14.6147 4.73017 16.6519 0.742178 18.9996 0.742178C22.3608 0.742178 25.0856 8.91648 25.0856 19C25.0856 20.2715 25.0422 21.5127 24.9598 22.711" stroke="#FEC801" stroke-width="1.48437" stroke-miterlimit="10" stroke-linecap="round" stroke-linejoin="round"/>
<path d="M2.05322 25.0859H22.3641" stroke="#FEC801" stroke-width="1.48437" stroke-miterlimit="10" stroke-linecap="round" stroke-linejoin="round"/>
<path d="M15.9077 12.9141H35.9468" stroke="#FEC801" stroke-width="1.48437" stroke-miterlimit="10" stroke-linecap="round" stroke-linejoin="round"/>
<path d="M2.05322 12.9141H10.8355" stroke="#FEC801" stroke-width="1.48437" stroke-miterlimit="10" stroke-linecap="round" stroke-linejoin="round"/>
<path d="M27.1143 25.0859C27.1143 23.7743 26.0509 22.7109 24.7393 22.7109C23.4276 22.7109 22.3643 23.7743 22.3643 25.0859C22.3643 26.3976 23.4276 27.4609 24.7393 27.4609C26.0509 27.4609 27.1143 26.3976 27.1143 25.0859Z" stroke="#FEC801" stroke-width="1.48437" stroke-miterlimit="10" stroke-linecap="round" stroke-linejoin="round"/>
<path d="M15.5854 12.9141C15.5854 11.6024 14.5221 10.5391 13.2104 10.5391C11.8988 10.5391 10.8354 11.6024 10.8354 12.9141C10.8354 14.2257 11.8988 15.2891 13.2104 15.2891C14.5221 15.2891 15.5854 14.2257 15.5854 12.9141Z" stroke="#FEC801" stroke-width="1.48437" stroke-miterlimit="10" stroke-linecap="round" stroke-linejoin="round"/>
<path d="M34.2896 6.08594C34.2896 4.77427 33.2262 3.71094 31.9146 3.71094C30.6029 3.71094 29.5396 4.77427 29.5396 6.08594C29.5396 7.39761 30.6029 8.46094 31.9146 8.46094C33.2262 8.46094 34.2896 7.39761 34.2896 6.08594Z" stroke="#FEC801" stroke-width="1.48437" stroke-miterlimit="10" stroke-linecap="round" stroke-linejoin="round"/>
<path d="M8.46094 31.9141C8.46094 30.6024 7.39761 29.5391 6.08594 29.5391C4.77427 29.5391 3.71094 30.6024 3.71094 31.9141C3.71094 33.2257 4.77427 34.2891 6.08594 34.2891C7.39761 34.2891 8.46094 33.2257 8.46094 31.9141Z" stroke="#FEC801" stroke-width="1.48437" stroke-miterlimit="10" stroke-linecap="round" stroke-linejoin="round"/>
<path d="M27.1143 25.0859H35.9466" stroke="#FEC801" stroke-width="1.48437" stroke-miterlimit="10" stroke-linecap="round" stroke-linejoin="round"/>
</g>
</svg>
