<svg width="61" height="61" viewBox="0 0 61 61" fill="none" xmlns="http://www.w3.org/2000/svg">
<mask id="mask0_377_883" style="mask-type:luminance" maskUnits="userSpaceOnUse" x="0" y="-1" width="61" height="62">
<path d="M0 -0.00122452H60.6683V60.6671H0V-0.00122452Z" fill="white"/>
</mask>
<g mask="url(#mask0_377_883)">
<path d="M53.4704 12.6004C57.2416 17.5133 59.4831 23.6617 59.4831 30.3336C59.4831 46.4322 46.4326 59.4828 30.3339 59.4828C23.6791 59.4828 17.5452 57.2528 12.6387 53.4991" stroke="#ED6300" stroke-width="2.36985" stroke-miterlimit="10" stroke-linecap="round" stroke-linejoin="round"/>
<path d="M13.5449 6.50177C18.2913 3.15175 24.083 1.18394 30.3343 1.18394C37.009 1.18394 43.1597 3.42736 48.0735 7.20135" stroke="#ED6300" stroke-width="2.36985" stroke-miterlimit="10" stroke-linecap="round" stroke-linejoin="round"/>
<path d="M7.15863 48.0151C3.41106 43.1108 1.18506 36.9819 1.18506 30.3331C1.18506 24.3222 3.0044 18.7363 6.12241 14.096" stroke="#ED6300" stroke-width="2.36985" stroke-miterlimit="10" stroke-linecap="round" stroke-linejoin="round"/>
<path d="M38.9464 43.8417C37.3228 53.1392 34.0754 59.4828 30.3341 59.4828C24.9678 59.4828 20.6177 46.4322 20.6177 30.3336C20.6177 28.3044 20.6868 26.3237 20.8183 24.4113" stroke="#ED6300" stroke-width="2.36985" stroke-miterlimit="10" stroke-linecap="round" stroke-linejoin="round"/>
<path d="M21.7129 16.8767C23.3335 7.55136 26.586 1.1844 30.3342 1.1844C35.7004 1.1844 40.0506 14.2349 40.0506 30.3336C40.0506 32.3636 39.9814 34.3453 39.8497 36.2584" stroke="#ED6300" stroke-width="2.36985" stroke-miterlimit="10" stroke-linecap="round" stroke-linejoin="round"/>
<path d="M3.27832 40.0498H35.7053" stroke="#ED6300" stroke-width="2.36985" stroke-miterlimit="10" stroke-linecap="round" stroke-linejoin="round"/>
<path d="M25.397 20.6168H57.39" stroke="#ED6300" stroke-width="2.36985" stroke-miterlimit="10" stroke-linecap="round" stroke-linejoin="round"/>
<path d="M3.27832 20.6168H17.2994" stroke="#ED6300" stroke-width="2.36985" stroke-miterlimit="10" stroke-linecap="round" stroke-linejoin="round"/>
<path d="M43.2891 40.0495C43.2891 37.9554 41.5915 36.2577 39.4973 36.2577C37.4032 36.2577 35.7056 37.9554 35.7056 40.0495C35.7056 42.1436 37.4032 43.8412 39.4973 43.8412C41.5915 43.8412 43.2891 42.1436 43.2891 40.0495Z" stroke="#ED6300" stroke-width="2.36985" stroke-miterlimit="10" stroke-linecap="round" stroke-linejoin="round"/>
<path d="M24.8829 20.6166C24.8829 18.5224 23.1852 16.8248 21.0911 16.8248C18.997 16.8248 17.2993 18.5224 17.2993 20.6166C17.2993 22.7107 18.997 24.4083 21.0911 24.4083C23.1852 24.4083 24.8829 22.7107 24.8829 20.6166Z" stroke="#ED6300" stroke-width="2.36985" stroke-miterlimit="10" stroke-linecap="round" stroke-linejoin="round"/>
<path d="M54.7442 9.71531C54.7442 7.62119 53.0465 5.92355 50.9524 5.92355C48.8583 5.92355 47.1606 7.62119 47.1606 9.71531C47.1606 11.8094 48.8583 13.5071 50.9524 13.5071C53.0465 13.5071 54.7442 11.8094 54.7442 9.71531Z" stroke="#ED6300" stroke-width="2.36985" stroke-miterlimit="10" stroke-linecap="round" stroke-linejoin="round"/>
<path d="M13.5083 50.9511C13.5083 48.857 11.8107 47.1593 9.71657 47.1593C7.62245 47.1593 5.9248 48.857 5.9248 50.9511C5.9248 53.0452 7.62245 54.7429 9.71657 54.7429C11.8107 54.7429 13.5083 53.0452 13.5083 50.9511Z" stroke="#ED6300" stroke-width="2.36985" stroke-miterlimit="10" stroke-linecap="round" stroke-linejoin="round"/>
<path d="M43.2891 40.0498H57.3902" stroke="#ED6300" stroke-width="2.36985" stroke-miterlimit="10" stroke-linecap="round" stroke-linejoin="round"/>
</g>
</svg>
