<svg width="143" height="143" viewBox="0 0 143 143" fill="none" xmlns="http://www.w3.org/2000/svg">
<g clip-path="url(#clip0_377_1034)">
<path d="M71.0302 142.06C70.3949 142.06 69.7601 141.923 69.1705 141.653L55.8741 135.516C27.3258 122.339 8.87891 93.509 8.87891 62.0671V17.7577C8.87891 15.5012 10.5716 13.6025 12.8153 13.3463C21.5835 12.3448 30.3952 10.8771 39.0005 8.98285C49.3189 6.71123 59.5957 3.77413 69.5496 0.25371C70.5076 -0.0845701 71.5527 -0.0845701 72.5107 0.25371C82.4647 3.77413 92.7414 6.71123 103.059 8.98285C111.665 10.8776 120.476 12.3448 129.245 13.3463C131.488 13.602 133.181 15.5012 133.181 17.7577V62.0671C133.181 93.509 114.734 122.339 86.1862 135.516L72.8898 141.653C72.3003 141.923 71.665 142.06 71.0302 142.06ZM17.7577 21.6897V62.0671C17.7577 90.0583 34.1798 115.723 59.5934 127.452L71.0302 132.731L82.4669 127.452C107.881 115.723 124.303 90.0583 124.303 62.0671V21.6897C116.536 20.6837 108.767 19.3293 101.152 17.6534C90.99 15.4164 80.8629 12.5552 71.0302 9.14312C61.1978 12.5552 51.0703 15.4164 40.9081 17.6534C33.2932 19.3288 25.5243 20.6837 17.7577 21.6897Z" fill="white"/>
<path d="M88.7873 102.106H53.2723C48.3757 102.106 44.3936 98.1235 44.3936 93.2268V62.1512C44.3936 57.2546 48.3757 53.2725 53.2723 53.2725H88.7873C93.6839 53.2725 97.6661 57.2546 97.6661 62.1512V93.2268C97.6661 98.1235 93.6839 102.106 88.7873 102.106ZM53.2723 62.1512V93.2268H88.794L88.7873 62.1512H53.2723Z" fill="white"/>
<path d="M84.3481 62.1513H57.7118C55.2604 62.1513 53.2725 60.1634 53.2725 57.7119V48.8332C53.2725 39.0417 61.2385 31.0757 71.03 31.0757C80.8214 31.0757 88.7875 39.0417 88.7875 48.8332V57.7119C88.7875 60.1634 86.7995 62.1513 84.3481 62.1513ZM62.1512 53.2726H79.9087V48.8332C79.9087 43.9366 75.9266 39.9544 71.03 39.9544C66.1333 39.9544 62.1512 43.9366 62.1512 48.8332V53.2726Z" fill="white"/>
</g>
<defs>
<clipPath id="clip0_377_1034">
<rect width="142.06" height="142.06" fill="white"/>
</clipPath>
</defs>
</svg>
